<svg width="22" height="21" viewBox="0 0 22 21" fill="none" xmlns="http://www.w3.org/2000/svg">
<path d="M20.003 12.6971C20.9024 12.6971 21.4837 12.0536 21.4837 11.0582C21.4837 10.642 21.4837 9.77978 20.8881 9.44946C21.0201 9.17759 21.0152 8.82519 21.0099 8.45684L21.0079 8.22054C21.0079 7.44706 20.664 6.84937 20.1236 6.60122C20.2589 6.32445 20.2552 5.9647 20.2511 5.589L20.2503 5.29669C20.2548 4.838 20.0835 4.40997 19.7675 4.09068C19.6473 3.96926 19.5112 3.8691 19.3636 3.79224C19.6367 3.40551 19.6477 2.84093 19.6534 2.56293C19.6624 2.11201 19.4911 1.68398 19.171 1.35774C18.8485 1.02905 18.4004 0.840183 17.9417 0.840183L13.9202 0.841406C13.9112 0.840586 13.9022 0.840183 13.8932 0.840183H8.61825C8.57246 0.840183 8.52504 0.836908 8.4768 0.833233C8.41629 0.829147 8.35211 0.825054 8.28588 0.825054C8.19757 0.825054 8.10559 0.832825 8.01197 0.85899C7.84845 0.90559 7.70454 0.998802 7.5774 1.08098L7.48746 1.13781C7.29491 1.25636 7.10808 1.38227 6.92125 1.5086L6.76917 1.61122C6.67105 1.67703 6.55536 1.71178 6.43312 1.71178H5.9082V2.29803V9.88256V10.5744L6.48545 10.9372C6.76222 11.1109 6.93597 11.4106 7.11993 11.7282L7.95146 13.13C8.5189 14.0838 9.08756 15.0376 9.65827 15.9897C9.67421 16.0163 9.69466 16.0502 9.69792 16.0637C9.7012 16.076 9.7012 16.1156 9.70078 16.1393L9.69792 19.2255C9.69751 19.6245 10.0336 19.9422 10.3627 20.2005C10.8516 20.5832 11.4681 20.6813 12.0543 20.4695C12.5224 20.3003 13.1066 20.0006 13.2326 19.535C13.3871 18.9634 13.5416 18.3919 13.6855 17.8171L13.7464 17.5796C13.8392 17.2203 13.9353 16.849 13.9746 16.4684C14.0318 15.9182 13.4725 13.686 13.141 12.6865L20.003 12.6971Z" fill="#979797"/>
<path d="M1.41042 11.4233C0.632849 11.4233 0 10.7905 0 10.0129V1.4106C0 0.63303 0.632849 0.000181198 1.41042 0.000181198H4.49698C4.80564 0.000181198 5.08905 0.102695 5.32156 0.271377V1.4106V10.0129V11.1502C5.08966 11.3202 4.80646 11.4233 4.49698 11.4233H1.41042ZM1.70354 3.80423V4.47673C1.70354 4.63862 1.83477 4.76985 1.99667 4.76985C2.15856 4.76985 2.28979 4.63862 2.28979 4.47673V3.80423C2.28979 3.64233 2.15856 3.5111 1.99667 3.5111C1.83477 3.5111 1.70354 3.64233 1.70354 3.80423ZM2.28978 5.43786C2.28978 5.27596 2.15855 5.14473 1.99666 5.14473C1.83476 5.14473 1.70353 5.27596 1.70353 5.43786V9.66094C1.70353 9.82283 1.83476 9.95406 1.99666 9.95406C2.15855 9.95406 2.28978 9.82283 2.28978 9.66094V5.43786Z" fill="#979797"/>
</svg>
