<svg width="20" height="20" viewBox="0 0 20 20" fill="none" xmlns="http://www.w3.org/2000/svg">
<path d="M19 3C19 1.89543 18.1046 1 17 1H3C1.89543 1 1.00001 1.89014 1.00002 2.99471C1.00008 6.56245 1.00022 13.564 1.00029 17.0007C1.00031 18.1053 1.8958 19 3.00039 18.9999L9.91044 18.9996L9.92149 12.5674H8.25041C8.03324 12.5674 7.85698 12.3918 7.85614 12.1746L7.84813 10.1012C7.84729 9.88288 8.02408 9.70543 8.24244 9.70543H9.91048V7.70203C9.91048 5.37711 11.3304 4.11117 13.4044 4.11117H15.1062C15.324 4.11117 15.5006 4.2877 15.5006 4.50549V6.25376C15.5006 6.47145 15.3241 6.64794 15.1065 6.64807L14.0621 6.64855C12.9342 6.64855 12.7158 7.18452 12.7158 7.97107V9.70547H15.1941C15.4303 9.70547 15.6135 9.91168 15.5857 10.1462L15.3399 12.2196C15.3164 12.418 15.1482 12.5675 14.9484 12.5675H12.7268L12.7158 18.9997C13.367 18.9997 15.4171 18.9998 17.0005 18.9999C18.1052 18.9999 19 18.1045 19 16.9999V3Z" fill="#2A2A2C"/>
</svg>
