<svg width="20" height="20" viewBox="0 0 20 20" fill="none" xmlns="http://www.w3.org/2000/svg">
<path d="M3.31 1H16.69C17.962 1 19 2.038 19 3.31V16.69C19 17.962 17.962 19 16.69 19H3.31C2.038 19 1 17.962 1 16.69V3.31C1 2.038 2.038 1 3.31 1ZM14.11 2.998C13.666 2.998 13.3 3.364 13.3 3.808V5.746C13.3 6.19 13.666 6.556 14.11 6.556H16.144C16.588 6.556 16.954 6.19 16.954 5.746V3.808C16.954 3.364 16.588 2.998 16.144 2.998H14.11ZM16.966 8.614H15.382C15.532 9.106 15.616 9.622 15.616 10.162C15.616 13.156 13.108 15.58 10.018 15.58C6.928 15.58 4.42 13.15 4.42 10.156C4.42 9.616 4.504 9.1 4.654 8.608H2.998V16.21C2.998 16.606 3.322 16.924 3.712 16.924H16.246C16.642 16.924 16.96 16.606 16.96 16.21V8.614H16.966ZM10.018 6.46C8.02 6.46 6.4 8.026 6.4 9.964C6.4 11.896 8.02 13.468 10.012 13.468C12.01 13.468 13.63 11.902 13.63 9.964C13.63 8.026 12.016 6.46 10.018 6.46Z" fill="#2A2A2C"/>
</svg>
