<?xml version="1.0" encoding="utf-8"?>
<!-- Svg Vector Icons : http://www.onlinewebfonts.com/icon -->
<!DOCTYPE svg PUBLIC "-//W3C//DTD SVG 1.1//EN" "http://www.w3.org/Graphics/SVG/1.1/DTD/svg11.dtd">
<svg version="1.1" xmlns="http://www.w3.org/2000/svg" xmlns:xlink="http://www.w3.org/1999/xlink" x="0px" y="0px" viewBox="0 0 1000 1000" enable-background="new 0 0 1000 1000" xml:space="preserve">
<metadata> Svg Vector Icons : http://www.onlinewebfonts.com/icon </metadata>
<g><path d="M10,792.2h980v182.6H10V792.2z M581.9,643.6V531.5c26.9-15.1,48.5-35.9,64.9-62.4c16.4-26.5,24.6-55.6,24.6-87.5c0-23.5-4.4-45.6-13.2-66.1c-8.8-20.6-21-38.4-36.5-53.5c-15.5-15.1-33.8-27.1-54.8-35.9c-21-8.8-43.2-13.2-66.8-13.2c-24.4,0-46.8,4.4-67.4,13.2c-20.6,8.8-38.8,20.8-54.8,35.9c-16,15.1-28.3,33-37.2,53.5c-8.8,20.6-13.2,42.6-13.2,66.1c0,31.9,8,60.9,23.9,86.9c16,26,36.9,46.2,63,60.5v114.6v70.5H10V530.2h146.1c-10.9-22.7-19.3-46.4-25.2-71.2c-5.9-24.8-8.8-50.6-8.8-77.5c0-48.7,9.9-94.9,29.6-138.6c19.7-43.7,46.6-81.5,80.6-113.4c34-31.9,74.1-57.3,120.3-76.2c46.2-18.9,95.3-28.3,147.4-28.3c52.1,0,101.2,9.4,147.4,28.3c46.2,18.9,86.3,44.3,120.3,76.2c34,31.9,60.9,69.7,80.6,113.4c19.7,43.7,29.6,89.9,29.6,138.6c0,26.9-2.9,52.7-8.8,77.5c-5.9,24.8-14.3,48.5-25.2,71.2H990v183.9H581.9V643.6L581.9,643.6z"/></g>
</svg>