<svg width="22" height="21" viewBox="0 0 22 21" fill="none" xmlns="http://www.w3.org/2000/svg">
<path d="M20.003 7.882C20.9024 7.882 21.4837 8.52548 21.4837 9.52095C21.4837 9.93712 21.4837 10.7993 20.8881 11.1296C21.0201 11.4015 21.0152 11.7539 21.0099 12.1223L21.0079 12.3586C21.0079 13.132 20.664 13.7297 20.1236 13.9779C20.2589 14.2547 20.2552 14.6144 20.2511 14.9901L20.2503 15.2824C20.2548 15.7411 20.0835 16.1691 19.7675 16.4884C19.6473 16.6098 19.5112 16.71 19.3636 16.7869C19.6367 17.1736 19.6477 17.7382 19.6534 18.0162C19.6624 18.4671 19.4911 18.8951 19.171 19.2214C18.8485 19.55 18.4004 19.7389 17.9417 19.7389L13.9202 19.7377C13.9112 19.7385 13.9022 19.7389 13.8932 19.7389H8.61825C8.57246 19.7389 8.52504 19.7422 8.4768 19.7459C8.41629 19.75 8.35211 19.754 8.28588 19.754C8.19757 19.754 8.10559 19.7463 8.01197 19.7201C7.84845 19.6735 7.70454 19.5803 7.5774 19.4981L7.48746 19.4413C7.29491 19.3227 7.10808 19.1968 6.92125 19.0705L6.76917 18.9679C6.67105 18.9021 6.55536 18.8673 6.43312 18.8673H5.9082V18.2811V10.6965V10.0047L6.48545 9.64195C6.76222 9.4682 6.93597 9.16854 7.11993 8.85089L7.95146 7.44906C8.5189 6.49529 9.08756 5.54152 9.65827 4.58938C9.67421 4.56281 9.69466 4.52887 9.69792 4.51538C9.7012 4.50312 9.7012 4.46347 9.70078 4.43975L9.69792 1.3536C9.69751 0.954597 10.0336 0.636942 10.3627 0.378573C10.8516 -0.00407901 11.4681 -0.102197 12.0543 0.10957C12.5224 0.278822 13.1066 0.578484 13.2326 1.04412C13.3871 1.61565 13.5416 2.18717 13.6855 2.76198L13.7464 2.9995C13.8392 3.35885 13.9353 3.73005 13.9746 4.11066C14.0318 4.66093 13.4725 6.89307 13.141 7.89263L20.003 7.882Z" fill="#979797"/>
<path d="M1.41042 9.15576C0.632849 9.15576 0 9.78861 0 10.5662V19.1685C0 19.9461 0.632849 20.5789 1.41042 20.5789H4.49698C4.80564 20.5789 5.08905 20.4764 5.32156 20.3077V19.1685V10.5662V9.4289C5.08966 9.25894 4.80646 9.15576 4.49698 9.15576H1.41042ZM1.70354 16.7749V16.1024C1.70354 15.9405 1.83477 15.8093 1.99667 15.8093C2.15856 15.8093 2.28979 15.9405 2.28979 16.1024V16.7749C2.28979 16.9368 2.15856 17.068 1.99667 17.068C1.83477 17.068 1.70354 16.9368 1.70354 16.7749ZM2.28978 15.1412C2.28978 15.3031 2.15855 15.4344 1.99666 15.4344C1.83476 15.4344 1.70353 15.3031 1.70353 15.1412V10.9182C1.70353 10.7563 1.83476 10.625 1.99666 10.625C2.15855 10.625 2.28978 10.7563 2.28978 10.9182V15.1412Z" fill="#979797"/>
</svg>
