<svg width="12" height="20" viewBox="0 0 12 20" fill="none" xmlns="http://www.w3.org/2000/svg">
<path fill-rule="evenodd" clip-rule="evenodd" d="M10.5022 5C10.5022 7.76142 8.26367 10 5.50225 10C2.74082 10 0.502245 7.76142 0.502245 5C0.502245 2.23858 2.74082 0 5.50225 0C8.26367 0 10.5022 2.23858 10.5022 5ZM10.4808 12.8247C9.51404 13.4209 8.44666 13.8358 7.33105 14.049L10.4925 17.2105C10.8472 17.564 10.9861 18.0801 10.8567 18.564C10.7273 19.0478 10.3492 19.4256 9.86533 19.5548C9.38144 19.684 8.86539 19.5449 8.51202 19.1899L5.50225 16.1802L2.49249 19.1899C2.13912 19.5449 1.62307 19.684 1.13917 19.5548C0.655275 19.4256 0.277249 19.0478 0.147816 18.5639C0.0183834 18.0801 0.157261 17.564 0.512015 17.2105L3.67296 14.0495C2.61486 13.8473 1.59966 13.4639 0.672165 12.916C0.0146165 12.5155 -0.196331 11.6594 0.199909 10.9993C0.596148 10.3391 1.45095 10.1227 2.11359 10.5147C4.24521 11.7601 6.88829 11.7355 8.9964 10.4507C9.42053 10.1834 9.95521 10.1633 10.3982 10.398C10.8412 10.6328 11.1249 11.0864 11.1419 11.5875C11.1589 12.0885 10.9068 12.5604 10.4808 12.8247Z" fill="#999999"/>
<path fill-rule="evenodd" clip-rule="evenodd" d="M5.50195 3C6.60652 3 7.50195 3.89543 7.50195 5C7.50195 6.10457 6.60652 7 5.50195 7C4.39738 7 3.50195 6.10457 3.50195 5C3.50319 3.89594 4.3979 3.00124 5.50195 3V3Z" fill="#F4F4F4"/>
</svg>
