<svg width="11" height="11" viewBox="0 0 11 11" fill="none" xmlns="http://www.w3.org/2000/svg">
<path d="M0 9.84021C0 10.4808 0.521455 11 1.15979 11H9.84021C10.4808 11 11 10.4785 11 9.84021V1.15979C11 0.519207 10.4785 0 9.84021 0H1.15979C0.519207 0 0 0.521455 0 1.15979V9.84021ZM9.84021 10.4493H1.15979C0.824888 10.4493 0.550674 10.1751 0.550674 9.84021V8.39048L2.63649 6.30466L4.41888 8.08704C4.52677 8.19493 4.69984 8.19493 4.80772 8.08704L8.02636 4.86841L10.4493 7.29138V9.84021C10.4493 10.1751 10.1751 10.4493 9.84021 10.4493ZM1.15979 0.550674H9.84021C10.1751 0.550674 10.4493 0.824888 10.4493 1.15979V6.51144L8.21966 4.28402C8.11177 4.17613 7.9387 4.17613 7.83081 4.28402L4.61218 7.50266L2.82979 5.72027C2.7219 5.61238 2.54884 5.61238 2.44095 5.72027L0.550674 7.61054V1.15979C0.550674 0.824888 0.824888 0.550674 1.15979 0.550674Z" fill="white"/>
<path d="M3.41005 4.40751C4.18324 4.40751 4.81034 3.77816 4.81034 3.00722C4.81034 2.23628 4.181 1.60693 3.41005 1.60693C2.63911 1.60693 2.00977 2.23628 2.00977 3.00722C2.00977 3.77816 2.63686 4.40751 3.41005 4.40751ZM3.41005 2.15761C3.87981 2.15761 4.25966 2.53971 4.25966 3.00722C4.25966 3.47473 3.87756 3.85683 3.41005 3.85683C2.94254 3.85683 2.56044 3.47473 2.56044 3.00722C2.56044 2.53971 2.94029 2.15761 3.41005 2.15761Z" fill="white"/>
</svg>
