<?xml version="1.0" encoding="UTF-8"?>
<svg width="16px" height="16px" viewBox="0 0 16 16" version="1.1" xmlns="http://www.w3.org/2000/svg" xmlns:xlink="http://www.w3.org/1999/xlink">
    <!-- Generator: Sketch 52.2 (67145) - http://www.bohemiancoding.com/sketch -->
    <title>search</title>
    <desc>Created with Sketch.</desc>
    <g id="Page-1" stroke="none" stroke-width="1" fill="none" fill-rule="evenodd">
        <g id="search">
            <path d="M10.1716,11.5859 L11.5858,10.1717 L15.1213,13.7073 C15.5118,14.0978 15.5118,14.7309 15.1213,15.1215 C14.7308,15.512 14.0976,15.512 13.7071,15.1215 L10.1716,11.5859 Z" id="Path" fill="#2A2A2C"></path>
            <path d="M14,7 C14,3.14026087 10.8597391,0 7,0 C3.14026087,0 0,3.14026087 0,7 C0,10.8597391 3.14026087,14 7,14 C8.449,14 9.82982609,13.5629565 11.0103913,12.7333043 C11.0103913,12.7333043 12.3577391,11.500087 12.3577391,11.500087 C13.4186957,10.2388696 14,8.652 14,7 Z M7,1.82608696 C9.85295652,1.82608696 12.173913,4.14704348 12.173913,7 C12.173913,9.85295652 9.85295652,12.173913 7,12.173913 C4.14704348,12.173913 1.82608696,9.85295652 1.82608696,7 C1.82608696,4.14704348 4.14704348,1.82608696 7,1.82608696 Z" id="Shape" fill="#774141" fill-rule="nonzero"></path>
        </g>
    </g>
</svg>