<svg width="20" height="20" viewBox="0 0 20 20" fill="none" xmlns="http://www.w3.org/2000/svg">
<path d="M1.31802 9.67124L5.46402 11.2515L7.07202 16.5188C7.17402 16.8557 7.58202 16.9782 7.84602 16.7577L10.156 14.8345C10.396 14.6324 10.744 14.6201 10.996 14.81L15.166 17.9031C15.454 18.1174 15.862 17.9582 15.934 17.6029L18.988 2.60315C19.066 2.21728 18.694 1.89266 18.334 2.03353L1.31202 8.74026C0.892016 8.90563 0.898016 9.51199 1.31802 9.67124ZM6.81402 10.4123L14.92 5.31646C15.064 5.22459 15.214 5.42671 15.088 5.54308L8.39802 11.8946C8.16402 12.1151 8.01402 12.4152 7.96602 12.7398L7.73802 14.4609C7.70802 14.6936 7.39002 14.712 7.33002 14.4915L6.45402 11.3495C6.35802 10.9942 6.50202 10.6083 6.81402 10.4123Z" fill="#2A2A2C"/>
</svg>
