<svg width="20" height="20" viewBox="0 0 20 20" fill="none" xmlns="http://www.w3.org/2000/svg">
<g clip-path="url(#clip0)">
<path d="M17.2131 11.5375C17.8765 12.1852 18.5767 12.7946 19.1718 13.5076C19.4346 13.8245 19.6834 14.1514 19.8738 14.5192C20.1436 15.0419 19.8993 15.6171 19.4305 15.6484L16.5169 15.647C15.7654 15.7094 15.1659 15.4069 14.6618 14.893C14.2584 14.4821 13.8848 14.0448 13.497 13.6201C13.3379 13.4465 13.1715 13.2831 12.9727 13.154C12.5749 12.8958 12.2297 12.9748 12.0023 13.3897C11.7709 13.8116 11.7183 14.2788 11.6956 14.7491C11.6644 15.4352 11.457 15.6155 10.7678 15.647C9.29496 15.7164 7.89715 15.4936 6.5986 14.7506C5.45375 14.0956 4.56602 13.1709 3.79328 12.124C2.28887 10.0856 1.13672 7.8457 0.101252 5.54305C-0.131834 5.02426 0.0386352 4.74578 0.611057 4.7359C1.56156 4.71742 2.51196 4.71875 3.4636 4.73457C3.84992 4.74023 4.10567 4.9618 4.25485 5.32676C4.7691 6.59125 5.39836 7.7943 6.18821 8.90941C6.39856 9.20629 6.61305 9.5032 6.91844 9.71215C7.25633 9.94351 7.5136 9.86684 7.67254 9.49043C7.7734 9.25176 7.81758 8.99469 7.84031 8.7391C7.91563 7.85969 7.92555 6.98176 7.79348 6.10543C7.71239 5.55852 7.40434 5.20445 6.8586 5.10098C6.58012 5.0482 6.62156 4.94457 6.75641 4.78562C6.99059 4.51148 7.21086 4.34082 7.64996 4.34082H10.9429C11.4613 4.44312 11.5764 4.67602 11.6473 5.19762L11.6502 8.85531C11.6445 9.05723 11.751 9.65648 12.1147 9.79012C12.4058 9.88527 12.5977 9.65238 12.7724 9.46781C13.5608 8.63105 14.1235 7.64215 14.6262 6.61816C14.8493 6.16789 15.0411 5.70031 15.227 5.23309C15.3647 4.88641 15.5809 4.71582 15.9714 4.72336L19.1406 4.72617C19.2346 4.72617 19.3297 4.72754 19.4207 4.74313C19.9547 4.83414 20.1011 5.06387 19.9361 5.58535C19.6762 6.40352 19.1705 7.08535 18.6761 7.77031C18.1476 8.5016 17.5823 9.20789 17.0582 9.94351C16.5767 10.6154 16.6149 10.954 17.2131 11.5375Z" fill="#2A2A2C"/>
</g>
<defs>
<clipPath id="clip0">
<rect width="20" height="20" fill="white"/>
</clipPath>
</defs>
</svg>
