<svg width="20" height="18" viewBox="0 0 20 18" fill="none" xmlns="http://www.w3.org/2000/svg">
<path d="M9.12584 1.57348C9.50685 0.887674 10.4932 0.887674 10.8742 1.57348L19.1746 16.5144C19.5449 17.1809 19.063 18 18.3005 18H1.69951C0.93703 18 0.455062 17.1809 0.825357 16.5144L9.12584 1.57348Z" fill="#F15145"/>
<rect x="9" y="13" width="2" height="2" rx="0.2" fill="white"/>
<path d="M9.02199 7.2199C9.01022 7.10216 9.10267 7 9.221 7H10.779C10.8973 7 10.9898 7.10216 10.978 7.2199L10.518 11.8199C10.5078 11.9221 10.4218 12 10.319 12H9.681C9.57825 12 9.49221 11.9221 9.48199 11.8199L9.02199 7.2199Z" fill="white"/>
</svg>
