<?xml version="1.0" encoding="UTF-8"?>
<svg width="18px" height="18px" viewBox="0 0 18 18" version="1.1" xmlns="http://www.w3.org/2000/svg" xmlns:xlink="http://www.w3.org/1999/xlink">
    <!-- Generator: Sketch 54.1 (76490) - https://sketchapp.com -->
    <title>wikipedia</title>
    <desc>Created with Sketch.</desc>
    <g id="Page-1" stroke="none" stroke-width="1" fill="none" fill-rule="evenodd">
        <g id="wikipedia" fill="#FFFFFF" fill-rule="nonzero">
            <path d="M2,0 L16,0 C17.1045695,-2.02906125e-16 18,0.8954305 18,2 L18,16 C18,17.1045695 17.1045695,18 16,18 L2,18 C0.8954305,18 1.3527075e-16,17.1045695 0,16 L0,2 C-1.3527075e-16,0.8954305 0.8954305,2.02906125e-16 2,0 Z M14.9917,5 C14.9917,5 13.1297,5 12.5109,5 L12.3333,5.03291 L12.3333,5.28989 C12.3333,5.32008 12.418,5.34537 12.4415,5.3642 C12.4639,5.38461 12.5245,5.39567 12.5496,5.39567 L12.7744,5.40775 C13.0293,5.42068 13.1069,5.48033 13.2063,5.58094 C13.3037,5.68514 13.3197,5.86192 13.2437,6.11042 L11.0511,12.2804 L10.9673,12.2534 L9.5745,8.87626 C9.5947,8.82553 9.6068,8.79707 9.6068,8.79707 L10.7472,6.27067 C10.8797,6.00421 11.0081,5.76605 11.0733,5.6551 C11.1925,5.45273 11.2504,5.4145 11.5751,5.39682 C11.6415,5.39682 11.6668,5.36176 11.6668,5.29076 L11.6668,5.03521 L11.6501,5.00776 C11.6501,5.00776 10.2869,5.00273 9.6663,5.00776 L9.6667,5.03406 L9.6667,5.28975 C9.6667,5.32094 9.6507,5.3458 9.6727,5.36463 C9.6961,5.38504 9.706,5.39553 9.7312,5.39553 L9.8241,5.40832 C10.0777,5.42126 10.1913,5.49973 10.2257,5.54903 C10.2864,5.63742 10.3148,5.7317 10.1679,6.11114 L9.2899,8.18365 L8.4964,6.26119 C8.23627,5.64691 8.17187,5.45676 8.56413,5.42126 L8.66947,5.39496 C8.74493,5.39496 8.7332,5.36276 8.7332,5.30168 L8.7332,5.03291 L8.72533,5.01092 C8.72533,5.01092 7.272,5.01092 6.60893,5.01135 L6.6,5.03766 L6.6,5.30714 C6.6,5.36765 6.65533,5.38317 6.758,5.39984 C7.12533,5.45676 7.11893,5.50232 7.48187,6.35504 C7.53613,6.48281 7.6964,6.86814 7.6964,6.86814 L8.5236,8.79276 C8.5236,8.79276 8.61747,9.04 8.76427,9.4237 L7.56213,12.2641 L7.49347,12.2432 C7.49347,12.2432 5.628,7.58389 5.08853,6.02476 C5.03173,5.86422 5.00707,5.74406 5.00707,5.67005 C5.00707,5.51166 5.1276,5.42586 5.36867,5.41436 L5.73547,5.40013 C5.81053,5.40013 5.93333,5.36621 5.93333,5.29564 L5.93333,5.0401 L5.8228,5.01365 C5.8228,5.01365 3.53747,5.01064 3.07587,5.01365 L3,5.0401 L3,5.30915 C3,5.35744 3.05973,5.38748 3.1636,5.40027 C3.44747,5.41881 3.63813,5.47199 3.72747,5.56168 C3.81653,5.65194 3.9132,5.88003 4.03853,6.23546 C4.7168,8.16482 6.1588,11.6079 6.86067,13.5692 C7.0624,14.1043 7.3172,14.1876 7.62507,13.5524 C7.94227,12.8556 8.58213,11.3091 9.0489,10.1673 C9.4856,11.3062 10.0801,12.8471 10.3669,13.545 C10.5952,14.1037 10.8556,14.1589 11.1197,13.5617 C11.8108,11.743 13.8289,6.26967 13.8289,6.26967 C13.9161,6.00104 14.038,5.79408 14.1951,5.64374 C14.3509,5.49528 14.5829,5.41134 14.9083,5.39496 C14.9741,5.39496 15,5.35917 15,5.28989 L15,5.03291 L14.9917,5 Z" id="Combined-Shape"></path>
        </g>
    </g>
</svg>