<svg width="20" height="20" viewBox="0 0 20 20" fill="none" xmlns="http://www.w3.org/2000/svg">
<path fill-rule="evenodd" clip-rule="evenodd" d="M19 3.55199C19.5862 4.20715 19.7931 5.68992 19.7931 5.68992C19.7931 5.68992 20 7.44855 20 9.20715V10.8279C20 12.552 19.7931 14.3106 19.7931 14.3106C19.7931 14.3106 19.5862 15.7934 19 16.4486C18.2785 17.2356 17.4635 17.3053 17.0592 17.34C17.0383 17.3417 17.0186 17.3434 17 17.3451C14.2069 17.5865 10 17.5865 10 17.5865C10 17.5865 4.79309 17.552 3.20691 17.3796C3.12263 17.3602 3.01883 17.3456 2.90081 17.329C2.39112 17.2574 1.61599 17.1486 1 16.4486C0.413828 15.7934 0.206914 14.3107 0.206914 14.3107C0.206914 14.3107 0 12.5865 0 10.8279V9.20719C0 7.44855 0.206914 5.68992 0.206914 5.68992C0.206914 5.68992 0.379297 4.20719 1 3.55199C1.72146 2.76497 2.53646 2.69521 2.94083 2.66059C2.96167 2.65881 2.98141 2.65712 3 2.65543C5.79309 2.44855 10 2.41406 10 2.41406C10 2.41406 14.2069 2.44855 17 2.65543C17.0288 2.65805 17.0604 2.66047 17.0945 2.66308C17.5096 2.69489 18.299 2.75538 19 3.55199ZM7.58618 14.0004V6.51758L14.1379 10.3452L7.58618 14.0004Z" fill="#2A2A2C"/>
</svg>
