<svg width="124" height="14" viewBox="0 0 124 14" fill="none" xmlns="http://www.w3.org/2000/svg">
<circle cx="101.5" cy="6.5" r="2.5" fill="#C82525"/>
<circle cx="111.5" cy="6.5" r="2.5" fill="#DF8A8A"/>
<circle cx="121.5" cy="6.5" r="2.5" fill="#ECB7B7"/>
<path d="M0 0.232687H7.81711V2.0554H2.16712V13.7673H0V0.232687Z" fill="black"/>
<path d="M19.3417 2.0554H16.2458V4.45983C16.2458 5.72669 16.2071 6.82548 16.1297 7.75623C16.0523 8.68698 15.9362 9.48846 15.7814 10.1607C15.6267 10.8199 15.4332 11.3693 15.201 11.8089C14.9817 12.2355 14.7301 12.591 14.4463 12.8753C14.111 13.1985 13.7498 13.4312 13.3628 13.5734C12.9758 13.7027 12.4985 13.7673 11.9309 13.7673H11.3505V11.9446H12.6662C12.9242 11.6861 13.1499 11.3629 13.3434 10.9751C13.5369 10.5873 13.6917 10.096 13.8078 9.50138C13.9368 8.90674 14.0336 8.18283 14.0981 7.32964C14.1626 6.46353 14.1948 5.4229 14.1948 4.20776V0.232687H21.5088V13.7673H19.3417V2.0554Z" fill="black"/>
<path d="M33.672 13.7673L32.6465 10.1607H28.3509L27.3254 13.7673H25.1196L29.0668 0.232687H32.0273L35.9745 13.7673H33.672ZM30.5761 2.42382H30.4213L28.7572 8.35734H32.2401L30.5761 2.42382Z" fill="black"/>
<path d="M39.8755 0.232687H44.5387C45.7642 0.232687 46.7123 0.5494 47.383 1.18283C48.0667 1.81625 48.4086 2.68236 48.4086 3.78116C48.4086 4.56971 48.2151 5.19668 47.8281 5.66205C47.4411 6.12742 46.9187 6.45706 46.2608 6.65097V6.74792C47.0477 6.9289 47.6797 7.27793 48.157 7.79501C48.6343 8.29917 48.8729 9.01662 48.8729 9.94737C48.8729 10.5032 48.7826 11.0139 48.602 11.4792C48.4215 11.9446 48.1635 12.3518 47.8281 12.7008C47.4927 13.0369 47.0863 13.3019 46.6091 13.4958C46.1447 13.6768 45.6287 13.7673 45.0611 13.7673H39.8755V0.232687ZM44.4033 12.0997C45.1256 12.0997 45.6803 11.9511 46.0673 11.6537C46.4543 11.3564 46.6478 10.8781 46.6478 10.2188V9.52077C46.6478 8.8615 46.4543 8.38319 46.0673 8.08587C45.6803 7.78855 45.1256 7.63989 44.4033 7.63989H42.0039V12.0997H44.4033ZM44.0937 6.04986C44.7773 6.04986 45.2933 5.92059 45.6416 5.66205C46.0028 5.39058 46.1834 4.9446 46.1834 4.3241V3.62604C46.1834 3.00554 46.0028 2.56602 45.6416 2.30748C45.2933 2.03601 44.7773 1.90028 44.0937 1.90028H42.0039V6.04986H44.0937Z" fill="black"/>
<path d="M59.8558 7.8144H55.3667V13.7673H53.1996V0.232687H55.3667V5.99169H59.8558V0.232687H62.0229V13.7673H59.8558V7.8144Z" fill="black"/>
<path d="M71.1482 14C70.2968 14 69.5551 13.8449 68.923 13.5346C68.3038 13.2114 67.7878 12.7525 67.3751 12.1579C66.9752 11.5632 66.6785 10.8329 66.485 9.96676C66.2915 9.10065 66.1948 8.11173 66.1948 7C66.1948 5.9012 66.2915 4.91874 66.485 4.05263C66.6785 3.17359 66.9752 2.43675 67.3751 1.84211C67.7878 1.24746 68.3038 0.795014 68.923 0.484764C69.5551 0.161588 70.2968 0 71.1482 0C71.9995 0 72.7348 0.161588 73.354 0.484764C73.9861 0.795014 74.5021 1.24746 74.9019 1.84211C75.3147 2.43675 75.6179 3.17359 75.8114 4.05263C76.0048 4.91874 76.1016 5.9012 76.1016 7C76.1016 8.11173 76.0048 9.10065 75.8114 9.96676C75.6179 10.8329 75.3147 11.5632 74.9019 12.1579C74.5021 12.7525 73.9861 13.2114 73.354 13.5346C72.7348 13.8449 71.9995 14 71.1482 14ZM71.1482 12.1967C72.1156 12.1967 72.7993 11.8347 73.1992 11.1108C73.5991 10.374 73.799 9.37858 73.799 8.12465V5.85596C73.799 4.61496 73.5991 3.6325 73.1992 2.90859C72.7993 2.17175 72.1156 1.80332 71.1482 1.80332C70.1807 1.80332 69.497 2.17175 69.0972 2.90859C68.6973 3.6325 68.4973 4.61496 68.4973 5.85596V8.14404C68.4973 9.38504 68.6973 10.374 69.0972 11.1108C69.497 11.8347 70.1807 12.1967 71.1482 12.1967Z" fill="black"/>
<path d="M80.5444 13.7673V0.232687H89V2.0554H82.7115V5.99169H88.7678V7.8144H82.7115V11.9446H89V13.7673H80.5444Z" fill="black"/>
</svg>
