<svg width="99" height="18" viewBox="0 0 99 18" fill="none" xmlns="http://www.w3.org/2000/svg">
<path d="M10.6062 17.2653C10.5976 17.2653 10.5891 17.2646 10.5806 17.2646C10.3572 17.251 10.174 17.068 10.1455 16.8293L8.65596 4.41735L7.0277 12.702C6.9841 12.9231 6.80781 13.0861 6.59741 13.0976C6.37974 13.1068 6.19587 12.967 6.13206 12.7514L4.50727 7.31224L3.35162 10.0901C3.27675 10.2697 3.1112 10.3854 2.92797 10.3854H0.46409C0.207877 10.3857 0 10.1622 0 9.88673C0 9.61054 0.207877 9.38673 0.46409 9.38673H2.62721L4.1547 5.71395C4.23336 5.52517 4.41217 5.41156 4.60362 5.41905C4.7957 5.43061 4.96156 5.56803 5.02001 5.76531L6.48115 10.6554L8.31287 1.33537C8.35931 1.09728 8.55329 0.926871 8.78549 0.939456C9.01137 0.94932 9.1984 1.13299 9.22715 1.37483L10.7442 14.0218L11.715 9.70238C11.765 9.47823 11.952 9.32007 12.1659 9.32007H14.6999C14.9564 9.32007 15.1643 9.54388 15.1643 9.81973C15.1643 10.0956 14.9564 10.3197 14.6999 10.3197H12.532L11.057 16.8827C11.0064 17.1078 10.8188 17.2653 10.6062 17.2653ZM25.7793 17.2653L31.3067 10.3837L32.1938 9.23265C32.6335 8.66122 32.9292 8.25306 33.0809 8.00816C33.3993 7.51836 33.6268 7.05306 33.7633 6.61225C33.8694 6.25306 33.9225 5.88572 33.9225 5.5102C33.9225 4.57959 33.642 3.82041 33.0809 3.23265C32.5198 2.62857 31.7919 2.32653 30.8972 2.32653C29.8054 2.32653 28.9638 2.80816 28.3724 3.77143C28.0539 4.29388 27.8871 4.93877 27.8719 5.70612H26.1887C26.219 4.93877 26.3404 4.26123 26.5527 3.67347C26.7346 3.18367 26.9924 2.7347 27.326 2.32653C27.7203 1.85306 28.1601 1.47755 28.6453 1.2C29.3126 0.840815 30.0708 0.661225 30.92 0.661225C32.2696 0.661225 33.3842 1.11836 34.2637 2.03265C35.1584 2.96327 35.6057 4.13061 35.6057 5.53469C35.6057 6.62858 35.2039 7.79591 34.4002 9.03673C34.1272 9.46123 33.7784 9.93469 33.3538 10.4571C33.2022 10.6694 33.0278 10.898 32.8307 11.1429L29.1685 15.6H35.583V17.2653H25.7793ZM47.4794 12.5143H49.3446V14.1796H47.4794V17.2653H45.7961V14.1796H38.0168L47.4794 0.0244898V12.5143ZM45.7961 12.5143V5.2898L40.9966 12.5143H45.7961ZM64.0387 4.53061C63.4322 3.87755 62.7725 3.37143 62.0598 3.01224C61.1954 2.58775 60.3235 2.37551 59.444 2.37551C57.7001 2.37551 56.2443 3.03673 55.0767 4.35918C53.9242 5.66531 53.3479 7.27346 53.3479 9.18367C53.3479 10.2449 53.5375 11.2163 53.9166 12.098C54.2654 12.898 54.7506 13.5918 55.3724 14.1796C56.5552 15.2898 57.92 15.8449 59.4667 15.8449C60.4372 15.8449 61.3774 15.5918 62.2873 15.0857C62.6664 14.8898 63.0303 14.6367 63.3791 14.3265C63.6217 14.1306 63.8416 13.9265 64.0387 13.7143V15.9673C63.2805 16.5551 62.4541 16.9796 61.5594 17.2408C60.8618 17.4531 60.1643 17.5592 59.4667 17.5592C57.2224 17.5592 55.3496 16.751 53.8484 15.1347C52.3623 13.5184 51.6192 11.5265 51.6192 9.15918C51.6192 6.72652 52.3774 4.70205 53.8939 3.08571C55.3951 1.46938 57.2831 0.661225 59.5577 0.661225C59.8458 0.661225 60.1188 0.677551 60.3766 0.710204C60.7405 0.742857 61.1045 0.808163 61.4684 0.906123C62.3783 1.16735 63.235 1.62449 64.0387 2.27755V4.53061ZM66.6091 17.2653L69.134 0.0244898L74.957 13.8122L80.8939 0L83.2595 17.2653H81.5308L80.0977 5.90204L74.9343 17.951L69.8391 5.90204L68.3378 17.2653H66.6091ZM97.3168 4.8L86.7624 18V0.930612H88.4457V13.4449L99 0.244898V17.2653H97.3168V4.8Z" fill="white"/>
</svg>
