<svg width="124" height="22" viewBox="0 0 124 22" fill="none" xmlns="http://www.w3.org/2000/svg">
<path d="M13.2186 20.2388C13.2079 20.2388 13.1973 20.238 13.1867 20.238C12.9083 20.2221 12.6799 20.0086 12.6445 19.7299L10.788 5.24615L8.75871 14.9138C8.70437 15.1718 8.48466 15.3619 8.22243 15.3754C7.95115 15.3861 7.72199 15.223 7.64246 14.9713L5.61746 8.62428L4.17717 11.8659C4.08385 12.0754 3.87753 12.2104 3.64917 12.2104H0.578401C0.25908 12.2108 0 11.95 0 11.6285C0 11.3062 0.25908 11.0451 0.578401 11.0451H3.27433L5.17805 6.75918C5.27609 6.53889 5.49895 6.40632 5.73755 6.41506C5.97695 6.42855 6.18366 6.5889 6.2565 6.81911L8.07754 12.5255L10.3604 1.64971C10.4183 1.37187 10.6601 1.17302 10.9495 1.1877C11.231 1.19921 11.4641 1.41355 11.4999 1.69575L13.3906 16.4538L14.6006 11.4134C14.6628 11.1518 14.8959 10.9673 15.1625 10.9673H18.3206C18.6404 10.9673 18.8994 11.2284 18.8994 11.5503C18.8994 11.8722 18.6404 12.1338 18.3206 12.1338H15.6188L13.7804 19.7922C13.7174 20.055 13.4836 20.2388 13.2186 20.2388ZM32.129 20.2388L39.0179 12.2084L40.1235 10.8653C40.6716 10.1984 41.0401 9.72214 41.2291 9.43636C41.626 8.8648 41.9095 8.32183 42.0796 7.80743C42.2119 7.38829 42.278 6.95962 42.278 6.52143C42.278 5.43547 41.9284 4.54957 41.2291 3.8637C40.5298 3.15877 39.6227 2.80632 38.5076 2.80632C37.1468 2.80632 36.0979 3.36834 35.3608 4.49241C34.964 5.10207 34.7561 5.85461 34.7372 6.75005H32.6393C32.6771 5.85461 32.8283 5.06397 33.0929 4.3781C33.3197 3.80654 33.641 3.28262 34.0568 2.80632C34.5482 2.25381 35.0962 1.81562 35.701 1.49174C36.5326 1.0726 37.4776 0.863029 38.5359 0.863029C40.218 0.863029 41.6071 1.39648 42.7033 2.46338C43.8183 3.54935 44.3759 4.91154 44.3759 6.55001C44.3759 7.82649 43.875 9.18868 42.8734 10.6366C42.5332 11.132 42.0985 11.6845 41.5693 12.2941C41.3803 12.5418 41.163 12.8085 40.9173 13.0943L36.3531 18.2955H44.3475V20.2388H32.129ZM59.1741 14.6947H61.4988V16.638H59.1741V20.2388H57.0763V16.638H47.3809L59.1741 0.120007V14.6947ZM57.0763 14.6947V6.26423L51.0946 14.6947H57.0763ZM79.8123 5.37832C79.0563 4.61624 78.2342 4.02564 77.3459 3.6065C76.2687 3.11115 75.182 2.86347 74.0858 2.86347C71.9123 2.86347 70.098 3.63507 68.6427 5.17827C67.2064 6.70243 66.4882 8.57902 66.4882 10.8081C66.4882 12.0465 66.7244 13.18 67.1969 14.2089C67.6316 15.1424 68.2364 15.9521 69.0113 16.638C70.4854 17.9335 72.1864 18.5813 74.1141 18.5813C75.3237 18.5813 76.4954 18.286 77.6294 17.6953C78.1019 17.4667 78.5555 17.1714 78.9902 16.8094C79.2926 16.5808 79.5666 16.3427 79.8123 16.095V18.7241C78.8673 19.41 77.8373 19.9054 76.7222 20.2102C75.8529 20.4579 74.9835 20.5817 74.1141 20.5817C71.317 20.5817 68.9829 19.6386 67.1119 17.7525C65.2597 15.8664 64.3337 13.5421 64.3337 10.7795C64.3337 7.94078 65.2786 5.57837 67.1686 3.69223C69.0396 1.80609 71.3926 0.863029 74.2275 0.863029C74.5866 0.863029 74.9268 0.88208 75.2481 0.920184C75.7017 0.958288 76.1553 1.03449 76.6088 1.14881C77.7428 1.45364 78.8106 1.98708 79.8123 2.74916V5.37832ZM83.0158 20.2388L86.1625 0.120007L93.4199 16.2093L100.819 0.0914288L103.767 20.2388H101.613L99.8268 6.97867L93.3915 21.0389L87.0413 6.97867L85.1703 20.2388H83.0158ZM121.287 5.69267L108.133 21.0961V1.17738H110.231V15.7806L123.385 0.377207V20.2388H121.287V5.69267Z" fill="#2A2A2C"/>
</svg>
