<svg width="80" height="80" viewBox="0 0 80 80" fill="none" xmlns="http://www.w3.org/2000/svg">
<g clip-path="url(#clip0)">
<path d="M61.9384 14.3105C51.7243 14.3105 43.6594 22.592 43.6594 32.8061C43.6594 43.0201 52.0482 51.3016 62.2623 51.3016C62.3644 51.3016 62.5186 51.2877 62.6207 51.286C58.5822 54.5019 53.5098 56.4398 47.9577 56.4398C45.4033 56.4398 43.3477 58.511 43.3477 61.0637C43.3477 63.6163 44.9911 65.6875 47.5455 65.6875C65.6756 65.6858 80.001 50.9362 80.001 32.8061C80.001 32.8026 80.001 32.7991 80.001 32.7939C80.001 22.585 72.149 14.3105 61.9384 14.3105Z" fill="#F15145"/>
<path d="M18.6167 14.3105C8.40264 14.3105 0.323845 22.592 0.323845 32.8061C0.323845 43.0201 8.7057 51.3016 18.9215 51.3016C19.0237 51.3016 19.1744 51.2877 19.2765 51.286C15.238 54.5019 10.1639 56.4398 4.61175 56.4398C2.05737 56.4398 0 58.511 0 61.0637C0 63.6163 1.66944 65.6875 4.22383 65.6875C22.3539 65.6858 36.7053 50.9362 36.7053 32.8061C36.7053 32.8026 36.7053 32.7991 36.7053 32.7939C36.7053 22.585 28.8274 14.3105 18.6167 14.3105Z" fill="#F15145"/>
</g>
<defs>
<clipPath id="clip0">
<rect width="80" height="80" fill="white"/>
</clipPath>
</defs>
</svg>
