<?xml version="1.0" encoding="UTF-8"?><!DOCTYPE svg PUBLIC "-//W3C//DTD SVG 1.1//EN" "http://www.w3.org/Graphics/SVG/1.1/DTD/svg11.dtd"><svg xmlns="http://www.w3.org/2000/svg"><defs>
        <clipPath id="a">
            <path d="M0 0h12v12H0z"/>
        </clipPath>
    
        <clipPath id="a">
            <path d="M0 0h20v20H0z"/>
        </clipPath>
    
        <clipPath id="a">
            <path d="M0 0h20v20H0z"/>
        </clipPath>
    </defs><symbol id="icon-arrow-bottom" viewBox="0 0 14 8">
    <path fill-rule="evenodd" clip-rule="evenodd" d="M.201.202a.69.69 0 0 0 0 .975L6.03 7.025 7 8l6.8-6.823a.69.69 0 0 0 0-.975.685.685 0 0 0-.972 0L7 6.05 1.172.202a.685.685 0 0 0-.97 0z"/>
</symbol><symbol id="icon-arrow-left" viewBox="0 0 12 12">
    <g clip-path="url(#a)">
        <path fill-rule="evenodd" clip-rule="evenodd" d="M9.4 10.6L4.8 6l4.6-4.6L8 0 2 6l6 6 1.4-1.4z"/>
    </g>
    
</symbol><symbol id="icon-arrow-right-lg" viewBox="0 0 13 24">
    <path fill-rule="evenodd" clip-rule="evenodd" d="M11.946 10.941L13 12 1.054 24 0 22.94l10.892-10.94L0 1.058 1.054 0l10.892 10.941z"/>
</symbol><symbol id="icon-arrow-right" viewBox="0 0 16 12">
    <path d="M0 5h14v2H0V5z"/>
    <path fill-rule="evenodd" clip-rule="evenodd" d="M14.6 4.625L10.4.5 9 1.875 13.2 6 9 10.125l1.4 1.375 4.2-4.125L16 6.002V6l-1.4-1.376z"/>
</symbol><symbol id="icon-copy" viewBox="0 0 18 18">
    <rect x=".5" y="6.5" width="11" height="11" rx=".5"/>
    <path d="M17 1H7v3H6V1a1 1 0 0 1 1-1h10a1 1 0 0 1 1 1v10a1 1 0 0 1-1 1h-3v-1h3V1z"/>
</symbol><symbol id="icon-facebook" viewBox="0 0 10 19">
    <title>
        facebook
    </title>
    <path d="M9.766.157v2.946H8.014c-.64 0-1.071.134-1.295.402-.223.268-.335.67-.335 1.205v2.11h3.27l-.435 3.303H6.384v8.471H2.97v-8.47H.123V6.82H2.97V4.387c0-1.384.387-2.457 1.161-3.22C4.904.404 5.934.023 7.222.023c1.093 0 1.941.045 2.544.134z" fill-rule="evenodd"/>
</symbol><symbol id="icon-fb" viewBox="0 0 20 20">
    <path d="M19 3a2 2 0 0 0-2-2H3c-1.105 0-2 .89-2 1.995V17A2 2 0 0 0 3 19h6.91l.011-6.433h-1.67a.394.394 0 0 1-.395-.392L7.848 10.1c0-.218.176-.396.394-.396H9.91V7.702c0-2.325 1.42-3.59 3.494-3.59h1.702c.218 0 .395.176.395.393v1.749a.394.394 0 0 1-.394.394h-1.045c-1.128 0-1.346.537-1.346 1.323v1.734h2.478c.236 0 .42.207.392.441l-.246 2.074a.394.394 0 0 1-.392.348h-2.221L12.716 19H17a2 2 0 0 0 2-2V3z"/>
</symbol><symbol id="icon-globe" viewBox="0 0 512 512">
    <path d="M256 0C114.842 0 0 114.842 0 256s114.842 256 256 256 256-114.842 256-256S397.158 0 256 0zm-83.233 49.548c-15.431 21.032-26.894 45.924-35.095 70.354-14.907-5.344-28.707-11.736-41.104-19.09 21.407-21.985 47.304-39.572 76.199-51.264zm-97.873 77.154c15.971 9.964 34.036 18.452 53.65 25.317-6.467 27.334-10.344 56.811-11.382 87.284H34.016c3.112-41.778 17.808-80.38 40.878-112.601zm-.001 258.595c-23.069-32.219-37.766-70.822-40.878-112.601h83.145c1.038 30.474 4.915 59.95 11.382 87.284-19.613 6.865-37.676 15.353-53.649 25.317zm21.676 25.89c12.397-7.354 26.197-13.746 41.104-19.09 8.2 24.428 19.663 49.32 35.095 70.354-28.896-11.691-54.793-29.278-76.199-51.264zm142.735 64.339c-34.478-12.654-57.72-57.982-69.619-92.899 21.841-5.198 45.296-8.391 69.619-9.4v102.299zm0-135.713c-27.403 1.061-53.935 4.708-78.711 10.722-5.624-24.321-9.038-50.587-10.029-77.84h88.74v67.118zm0-100.509h-88.74c.99-27.253 4.404-53.518 10.029-77.84 24.776 6.014 51.308 9.661 78.711 10.722v67.118zm0-100.531c-24.322-1.008-47.777-4.203-69.619-9.4 11.89-34.894 35.131-80.242 69.619-92.899v102.299zm197.803-12.07c23.069 32.219 37.766 70.822 40.878 112.601H394.84c-1.038-30.474-4.915-59.95-11.382-87.284 19.613-6.865 37.676-15.353 53.649-25.317zm-21.676-25.89c-12.397 7.354-26.197 13.746-41.104 19.09-8.2-24.428-19.663-49.32-35.095-70.354 28.896 11.691 54.793 29.278 76.199 51.264zM272.696 36.474c34.478 12.654 57.72 57.982 69.619 92.899-21.841 5.198-45.296 8.391-69.619 9.4V36.474zm0 135.713c27.403-1.061 53.935-4.708 78.711-10.722 5.624 24.321 9.038 50.587 10.029 77.84h-88.74v-67.118zm0 100.397h88.74c-.99 27.253-4.404 53.63-10.029 77.951-24.776-6.014-51.308-9.661-78.711-10.722v-67.229zm0 202.942V373.227c24.322 1.008 47.777 4.203 69.619 9.4-11.89 34.893-35.132 80.241-69.619 92.899zm66.537-13.074c15.431-21.032 26.894-45.924 35.095-70.354 14.907 5.344 28.706 11.736 41.104 19.09-21.407 21.985-47.304 39.572-76.199 51.264zm97.873-77.154c-15.971-9.964-34.036-18.452-53.65-25.317 6.467-27.334 10.344-56.922 11.382-87.395h83.145c-3.111 41.778-17.807 80.491-40.877 112.712z"/>
</symbol><symbol id="icon-inst" viewBox="0 0 20 20">
    <path d="M3.31 1h13.38A2.315 2.315 0 0 1 19 3.31v13.38A2.315 2.315 0 0 1 16.69 19H3.31A2.315 2.315 0 0 1 1 16.69V3.31A2.315 2.315 0 0 1 3.31 1zm10.8 1.998a.814.814 0 0 0-.81.81v1.938c0 .444.366.81.81.81h2.034c.444 0 .81-.366.81-.81V3.808a.814.814 0 0 0-.81-.81H14.11zm2.856 5.616h-1.584c.15.492.234 1.008.234 1.548 0 2.994-2.508 5.418-5.598 5.418S4.42 13.15 4.42 10.156c0-.54.084-1.056.234-1.548H2.998v7.602c0 .396.324.714.714.714h12.534a.712.712 0 0 0 .714-.714V8.614h.006zM10.018 6.46C8.02 6.46 6.4 8.026 6.4 9.964c0 1.932 1.62 3.504 3.612 3.504 1.998 0 3.618-1.566 3.618-3.504S12.016 6.46 10.018 6.46z"/>
</symbol><symbol id="icon-libra" viewBox="0 0 1000 1000">
    <path d="M10 792.2h980v182.6H10V792.2zm571.9-148.6V531.5c26.9-15.1 48.5-35.9 64.9-62.4 16.4-26.5 24.6-55.6 24.6-87.5 0-23.5-4.4-45.6-13.2-66.1-8.8-20.6-21-38.4-36.5-53.5-15.5-15.1-33.8-27.1-54.8-35.9-21-8.8-43.2-13.2-66.8-13.2-24.4 0-46.8 4.4-67.4 13.2-20.6 8.8-38.8 20.8-54.8 35.9-16 15.1-28.3 33-37.2 53.5-8.8 20.6-13.2 42.6-13.2 66.1 0 31.9 8 60.9 23.9 86.9 16 26 36.9 46.2 63 60.5v185.1H10V530.2h146.1c-10.9-22.7-19.3-46.4-25.2-71.2-5.9-24.8-8.8-50.6-8.8-77.5 0-48.7 9.9-94.9 29.6-138.6 19.7-43.7 46.6-81.5 80.6-113.4 34-31.9 74.1-57.3 120.3-76.2C398.8 34.4 447.9 25 500 25c52.1 0 101.2 9.4 147.4 28.3s86.3 44.3 120.3 76.2c34 31.9 60.9 69.7 80.6 113.4 19.7 43.7 29.6 89.9 29.6 138.6 0 26.9-2.9 52.7-8.8 77.5-5.9 24.8-14.3 48.5-25.2 71.2H990v183.9H581.9v-70.5z"/>
</symbol><symbol id="icon-search" viewBox="0 0 16 16">
    <title>
        search
    </title>
    <g fill-rule="evenodd">
        <path d="M10.172 11.586l1.414-1.414 3.535 3.535a1 1 0 0 1-1.414 1.414l-3.535-3.535z"/>
        <path d="M14 7c0-3.86-3.14-7-7-7S0 3.14 0 7s3.14 7 7 7c1.449 0 2.83-.437 4.01-1.267l1.348-1.233A6.977 6.977 0 0 0 14 7zM7 1.826A5.18 5.18 0 0 1 12.174 7 5.18 5.18 0 0 1 7 12.174 5.18 5.18 0 0 1 1.826 7 5.18 5.18 0 0 1 7 1.826z" fill-rule="nonzero"/>
    </g>
</symbol><symbol id="icon-sm-arrow-left" viewBox="0 0 6 9">
    <path fill-rule="evenodd" clip-rule="evenodd" d="M1.1 5.625L4.4 9l1.1-1.125L2.2 4.5l3.3-3.375L4.4 0 0 4.5l1.1 1.125z"/>
</symbol><symbol id="icon-sm-arrow-right" viewBox="0 0 6 9">
    <path fill-rule="evenodd" clip-rule="evenodd" d="M4.9 5.625L1.6 9 .5 7.875 3.8 4.5.5 1.125 1.6 0 6 4.5 4.9 5.625z"/>
</symbol><symbol id="icon-tel" viewBox="0 0 20 20">
    <path d="M1.318 9.671l4.146 1.58 1.608 5.268c.102.337.51.46.774.239l2.31-1.923a.674.674 0 0 1 .84-.025l4.17 3.093a.486.486 0 0 0 .768-.3l3.054-15c.078-.386-.294-.71-.654-.57L1.312 8.74c-.42.166-.414.772.006.931zm5.496.741l8.106-5.096c.144-.091.294.11.168.227l-6.69 6.352a1.45 1.45 0 0 0-.432.845l-.228 1.72c-.03.234-.348.252-.408.031l-.876-3.141a.85.85 0 0 1 .36-.938z"/>
</symbol><symbol id="icon-thumb-up" viewBox="0 0 561 561">
    <path d="M0 535.5h102v-306H0v306zM561 255c0-28.05-22.95-51-51-51H349.35l25.5-117.3v-7.65c0-10.2-5.1-20.4-10.199-28.05L336.6 25.5 168.3 193.8c-10.2 7.65-15.3 20.4-15.3 35.7v255c0 28.05 22.95 51 51 51h229.5c20.4 0 38.25-12.75 45.9-30.6l76.5-181.051c2.55-5.1 2.55-12.75 2.55-17.85v-51H561V255z"/>
</symbol><symbol id="icon-tw" viewBox="0 0 20 20">
    <g clip-path="url(#a)">
        <path d="M20 3.799a8.549 8.549 0 0 1-2.363.647 4.077 4.077 0 0 0 1.804-2.266 8.192 8.192 0 0 1-2.6.992A4.099 4.099 0 0 0 9.75 5.976c0 .325.027.638.095.935-3.409-.166-6.425-1.8-8.451-4.288A4.128 4.128 0 0 0 .83 4.694c0 1.42.732 2.679 1.821 3.407A4.05 4.05 0 0 1 .8 7.597v.045a4.119 4.119 0 0 0 3.285 4.03 4.09 4.09 0 0 1-1.075.134c-.262 0-.527-.015-.776-.07.531 1.624 2.038 2.818 3.831 2.856a8.238 8.238 0 0 1-5.084 1.75A7.67 7.67 0 0 1 0 16.284a11.543 11.543 0 0 0 6.29 1.84c7.545 0 11.67-6.25 11.67-11.668 0-.18-.006-.356-.015-.53A8.179 8.179 0 0 0 20 3.8z"/>
    </g>
    
</symbol><symbol id="icon-vk" viewBox="0 0 20 20">
    <g clip-path="url(#a)">
        <path d="M17.213 11.537c.663.648 1.364 1.258 1.959 1.97.263.318.511.644.702 1.012.27.523.025 1.098-.444 1.13l-2.913-.002c-.752.062-1.351-.24-1.855-.754-.404-.41-.777-.848-1.165-1.273a2.762 2.762 0 0 0-.524-.466c-.398-.258-.743-.18-.97.236-.232.422-.285.889-.307 1.36-.032.685-.239.866-.928.897-1.473.07-2.87-.153-4.17-.896-1.144-.655-2.032-1.58-2.805-2.627C2.29 10.086 1.137 7.846.101 5.543c-.233-.519-.062-.797.51-.807.95-.019 1.901-.017 2.853-.001.386.005.642.227.79.592.515 1.264 1.144 2.467 1.934 3.582.21.297.425.594.73.803.338.232.596.155.755-.222.1-.238.145-.495.167-.75.076-.88.086-1.758-.047-2.635-.08-.546-.389-.9-.934-1.004-.279-.053-.237-.156-.103-.315.235-.275.455-.445.894-.445h3.293c.518.102.633.335.704.857l.003 3.657c-.005.202.101.801.465.935.29.095.483-.138.657-.322.789-.837 1.351-1.826 1.854-2.85.223-.45.415-.918.601-1.385.138-.347.354-.517.744-.51l3.17.003c.094 0 .189.002.28.017.534.091.68.32.515.842-.26.819-.765 1.5-1.26 2.185-.528.732-1.094 1.438-1.618 2.174-.481.671-.443 1.01.155 1.593z"/>
    </g>
    
</symbol><symbol id="icon-wikipedia" viewBox="0 0 18 18">
    <title>
        wikipedia
    </title>
    <path d="M2 0h14a2 2 0 0 1 2 2v14a2 2 0 0 1-2 2H2a2 2 0 0 1-2-2V2a2 2 0 0 1 2-2zm12.992 5H12.51l-.178.033v.257c0 .03.085.055.108.074.023.02.083.032.109.032l.224.012c.255.013.333.072.432.173.098.104.114.28.038.53l-2.193 6.17-.084-.028-1.393-3.377.033-.079 1.14-2.526c.133-.267.261-.505.326-.616.12-.202.177-.24.502-.258.067 0 .092-.035.092-.106v-.256l-.017-.027s-1.363-.005-1.984 0V5.29c0 .03-.015.056.007.075.023.02.033.03.058.03l.093.013c.254.013.367.092.402.141.06.088.089.183-.058.562L9.29 8.184 8.496 6.26c-.26-.614-.324-.804.068-.84l.105-.026c.076 0 .064-.032.064-.093v-.27l-.008-.021H6.61l-.009.027v.27c0 .06.055.075.158.092.367.057.36.102.724.955l.214.513.828 1.925s.093.247.24.63l-1.202 2.841-.069-.02s-1.865-4.66-2.404-6.22a1.185 1.185 0 0 1-.082-.354c0-.158.12-.244.362-.256l.366-.014c.076 0 .198-.034.198-.104V5.04l-.11-.026s-2.286-.003-2.747 0L3 5.04v.27c0 .047.06.077.164.09.283.019.474.072.563.162.09.09.186.318.312.673.678 1.93 2.12 5.373 2.822 7.334.201.535.456.619.764-.017.317-.696.957-2.243 1.424-3.385.437 1.14 1.031 2.68 1.318 3.378.228.559.489.614.753.017.69-1.819 2.709-7.292 2.709-7.292.087-.269.209-.476.366-.626.156-.149.388-.233.713-.249.066 0 .092-.036.092-.105v-.257L14.992 5z" fill-rule="nonzero"/>
</symbol><symbol id="icon-youtube" viewBox="0 0 20 20">
    <path fill-rule="evenodd" clip-rule="evenodd" d="M19 3.552c.586.655.793 2.138.793 2.138S20 7.449 20 9.207v1.62c0 1.725-.207 3.484-.207 3.484s-.207 1.482-.793 2.138c-.721.787-1.537.856-1.94.891l-.06.005c-2.793.242-7 .242-7 .242s-5.207-.035-6.793-.207a3.86 3.86 0 0 0-.306-.051c-.51-.072-1.285-.18-1.901-.88-.586-.656-.793-2.138-.793-2.138S0 12.586 0 10.828v-1.62C0 7.447.207 5.69.207 5.69S.379 4.207 1 3.552c.721-.787 1.536-.857 1.94-.891L3 2.655c2.793-.206 7-.24 7-.24s4.207.034 7 .24l.095.008c.415.032 1.204.092 1.905.889zM7.586 14V6.518l6.552 3.827L7.586 14z"/>
</symbol></svg>