<svg width="80" height="80" viewBox="0 0 80 80" fill="none" xmlns="http://www.w3.org/2000/svg">
    <g clip-path="url(#a)" fill="#F15145">
        <path d="M61.938 14.31c-10.214 0-18.279 8.282-18.279 18.496 0 10.214 8.39 18.496 18.603 18.496.102 0 .257-.014.359-.016-4.039 3.216-9.111 5.154-14.663 5.154a4.612 4.612 0 0 0-4.61 4.624c0 2.552 1.643 4.623 4.197 4.623 18.13-.001 32.456-14.75 32.456-32.88v-.013c0-10.209-7.852-18.483-18.063-18.483z"/>
        <path d="M18.617 14.31C8.403 14.31.324 22.593.324 32.806c0 10.214 8.382 18.496 18.598 18.496.102 0 .252-.014.354-.016-4.038 3.216-9.112 5.154-14.664 5.154A4.614 4.614 0 0 0 0 61.064c0 2.552 1.67 4.623 4.224 4.623 18.13-.001 32.481-14.75 32.481-32.88v-.013c0-10.209-7.878-18.483-18.088-18.483z"/>
    </g>
    <defs>
        <clipPath id="a">
            <path fill="#fff" d="M0 0h80v80H0z"/>
        </clipPath>
    </defs>
</svg>
