<svg width="124" height="14" viewBox="0 0 124 14" fill="none" xmlns="http://www.w3.org/2000/svg">
    <circle cx="101.5" cy="6.5" r="2.5" fill="#C82525"/>
    <circle cx="111.5" cy="6.5" r="2.5" fill="#DF8A8A"/>
    <circle cx="121.5" cy="6.5" r="2.5" fill="#ECB7B7"/>
    <path d="M0 .233h7.817v1.822h-5.65v11.712H0V.233z" fill="#000"/>
    <path d="M19.342 2.055h-3.096V4.46c0 1.267-.039 2.365-.116 3.296-.078.931-.194 1.732-.349 2.405-.154.659-.348 1.208-.58 1.648-.22.427-.47.782-.755 1.066a3.105 3.105 0 0 1-1.083.698c-.387.13-.864.194-1.432.194h-.58v-1.822h1.315a3.69 3.69 0 0 0 .677-.97c.194-.388.349-.879.465-1.474a16.2 16.2 0 0 0 .29-2.171c.065-.866.097-1.907.097-3.122V.233h7.314v13.534h-2.167V2.055z" fill="#000"/>
    <path d="M33.672 13.767l-1.025-3.606H28.35l-1.026 3.606H25.12L29.067.233h2.96l3.947 13.534h-2.302zM30.576 2.424h-.155l-1.664 5.933h3.483l-1.664-5.933z" fill="#000"/>
    <path d="M39.876.233h4.663c1.225 0 2.173.316 2.844.95.684.633 1.026 1.5 1.026 2.598 0 .789-.194 1.416-.58 1.881-.388.465-.91.795-1.568.989v.097c.787.18 1.419.53 1.896 1.047.477.504.716 1.222.716 2.152a4.2 4.2 0 0 1-.271 1.532c-.18.466-.438.873-.774 1.222a3.627 3.627 0 0 1-1.219.795 4.23 4.23 0 0 1-1.548.271h-5.185V.233zM44.403 12.1c.723 0 1.277-.149 1.664-.446.387-.298.58-.776.58-1.435V9.52c0-.66-.193-1.138-.58-1.435-.387-.297-.941-.446-1.664-.446h-2.4v4.46h2.4zm-.31-6.05c.684 0 1.2-.13 1.549-.388.36-.271.541-.717.541-1.338v-.698c0-.62-.18-1.06-.541-1.319-.349-.271-.865-.407-1.548-.407h-2.09v4.15h2.09z" fill="#000"/>
    <path d="M59.856 7.814h-4.49v5.953H53.2V.233h2.167v5.759h4.489V.232h2.167v13.535h-2.167V7.814z" fill="#000"/>
    <path d="M71.148 14c-.851 0-1.593-.155-2.225-.465a4.27 4.27 0 0 1-1.548-1.377c-.4-.595-.697-1.325-.89-2.191-.194-.866-.29-1.855-.29-2.967 0-1.099.097-2.081.29-2.947.194-.88.49-1.616.89-2.21A4.102 4.102 0 0 1 68.923.484C69.555.162 70.297 0 71.148 0c.852 0 1.587.162 2.206.485.632.31 1.148.762 1.548 1.357.413.595.716 1.332.91 2.21.193.867.29 1.85.29 2.948 0 1.112-.097 2.1-.29 2.967-.194.866-.497 1.596-.91 2.19a4.072 4.072 0 0 1-1.548 1.378c-.62.31-1.355.465-2.206.465zm0-1.803c.968 0 1.651-.362 2.051-1.086.4-.737.6-1.732.6-2.986V5.856c0-1.241-.2-2.224-.6-2.947-.4-.737-1.083-1.106-2.05-1.106-.968 0-1.652.369-2.052 1.106-.4.724-.6 1.706-.6 2.947v2.288c0 1.241.2 2.23.6 2.967.4.724 1.084 1.086 2.051 1.086z" fill="#000"/>
    <path d="M80.544 13.767V.233H89v1.822h-6.288v3.937h6.056v1.822h-6.056v4.13H89v1.823h-8.456z" fill="#000"/>
</svg>
