<svg width="99" height="18" viewBox="0 0 99 18" fill="none" xmlns="http://www.w3.org/2000/svg">
    <path d="M10.606 17.265h-.025a.48.48 0 0 1-.435-.436L8.655 4.417l-1.628 8.285a.476.476 0 0 1-.43.396.463.463 0 0 1-.466-.347L4.507 7.312 3.352 10.09a.464.464 0 0 1-.424.295H.464c-.256 0-.464-.223-.464-.498 0-.276.208-.5.464-.5h2.163l1.528-3.673a.468.468 0 0 1 .449-.295.47.47 0 0 1 .416.346l1.461 4.89 1.832-9.32c.046-.238.24-.408.472-.396.226.01.413.194.442.436l1.517 12.647.971-4.32a.472.472 0 0 1 .45-.382H14.7c.256 0 .464.224.464.5s-.208.5-.464.5h-2.168l-1.475 6.563a.473.473 0 0 1-.45.382zm15.173 0l5.528-6.881.887-1.151c.44-.572.735-.98.887-1.225.318-.49.546-.955.682-1.396.106-.359.16-.726.16-1.102 0-.93-.281-1.69-.842-2.277-.561-.604-1.29-.906-2.184-.906-1.092 0-1.933.481-2.525 1.444-.318.523-.485 1.168-.5 1.935h-1.683c.03-.767.151-1.445.364-2.033.182-.49.44-.938.773-1.346a4.859 4.859 0 0 1 1.32-1.127C29.312.84 30.07.661 30.92.661c1.35 0 2.464.457 3.344 1.372.894.93 1.342 2.098 1.342 3.502 0 1.094-.402 2.26-1.206 3.502-.273.424-.622.898-1.046 1.42-.152.212-.326.441-.523.686L29.168 15.6h6.415v1.665h-9.804zm21.7-4.75h1.866v1.665h-1.866v3.085h-1.683V14.18h-7.78L47.48.024v12.49zm-1.683 0V5.29l-4.8 7.224h4.8zM64.04 4.53c-.607-.653-1.267-1.16-1.98-1.519-.864-.424-1.735-.636-2.615-.636-1.744 0-3.2.66-4.367 1.983-1.153 1.306-1.73 2.914-1.73 4.825 0 1.06.19 2.032.57 2.914.348.8.834 1.494 1.455 2.082 1.183 1.11 2.548 1.665 4.095 1.665.97 0 1.91-.253 2.82-.76.38-.195.743-.448 1.092-.759.243-.195.463-.4.66-.612v2.253a7.404 7.404 0 0 1-2.48 1.274 7.155 7.155 0 0 1-2.092.318c-2.245 0-4.117-.808-5.619-2.424-1.486-1.617-2.229-3.608-2.229-5.976 0-2.432.758-4.457 2.275-6.073C55.395 1.469 57.284.66 59.558.66c.288 0 .56.017.819.05.363.032.727.097 1.091.195.91.261 1.767.718 2.57 1.372V4.53zm2.57 12.734L69.134.025l5.823 13.787L80.894 0l2.365 17.265h-1.728L80.098 5.902l-5.164 12.049L69.84 5.902l-1.501 11.363h-1.729zM97.317 4.8L86.762 18V.93h1.684v12.515L99 .245v17.02h-1.683V4.8z" fill="#fff"/>
</svg>
