<?xml version="1.0" encoding="UTF-8"?><!DOCTYPE svg PUBLIC "-//W3C//DTD SVG 1.1//EN" "http://www.w3.org/Graphics/SVG/1.1/DTD/svg11.dtd"><svg xmlns="http://www.w3.org/2000/svg"><symbol id="icon-arrow-right" viewBox="0 0 16 12">
    <path d="M0 5h14v2H0V5z"/>
    <path fill-rule="evenodd" clip-rule="evenodd" d="M14.6 4.625L10.4.5 9 1.875 13.2 6 9 10.125l1.4 1.375 4.2-4.125L16 6.002V6l-1.4-1.376z"/>
</symbol><symbol id="icon-facebook" viewBox="0 0 10 19">
    <title>
        facebook
    </title>
    <path d="M9.766.157v2.946H8.014c-.64 0-1.071.134-1.295.402-.223.268-.335.67-.335 1.205v2.11h3.27l-.435 3.303H6.384v8.471H2.97v-8.47H.123V6.82H2.97V4.387c0-1.384.387-2.457 1.161-3.22C4.904.404 5.934.023 7.222.023c1.093 0 1.941.045 2.544.134z" fill-rule="evenodd"/>
</symbol><symbol id="icon-search" viewBox="0 0 16 16">
    <title>
        search
    </title>
    <g fill-rule="evenodd">
        <path d="M10.172 11.586l1.414-1.414 3.535 3.535a1 1 0 0 1-1.414 1.414l-3.535-3.535z"/>
        <path d="M14 7c0-3.86-3.14-7-7-7S0 3.14 0 7s3.14 7 7 7c1.449 0 2.83-.437 4.01-1.267l1.348-1.233A6.977 6.977 0 0 0 14 7zM7 1.826A5.18 5.18 0 0 1 12.174 7 5.18 5.18 0 0 1 7 12.174 5.18 5.18 0 0 1 1.826 7 5.18 5.18 0 0 1 7 1.826z" fill-rule="nonzero"/>
    </g>
</symbol></svg>